<?xml version="1.0" standalone="no"?>
<!DOCTYPE svg PUBLIC "-//W3C//DTD SVG 20010904//EN"
 "http://www.w3.org/TR/2001/REC-SVG-20010904/DTD/svg10.dtd">
<svg version="1.0" xmlns="http://www.w3.org/2000/svg"
 width="260.000000pt" height="260.000000pt" viewBox="0 0 260.000000 260.000000"
 preserveAspectRatio="xMidYMid meet">
<metadata>
Created by potrace 1.14, written by Peter Selinger 2001-2017
</metadata>
<g transform="translate(0.000000,260.000000) scale(0.100000,-0.100000)"
fill="#000000" stroke="none">
<path d="M1132 2590 c-549 -78 -984 -480 -1103 -1020 -31 -138 -33 -389 -5
-520 55 -253 163 -462 333 -641 188 -197 409 -322 673 -380 138 -31 389 -33
520 -5 253 55 462 163 641 333 197 188 322 409 380 673 31 138 33 389 5 520
-55 253 -163 462 -333 641 -184 193 -399 317 -653 375 -118 28 -348 40 -458
24z m-112 -971 c0 -44 2 -50 14 -39 8 6 25 10 38 8 20 -3 23 -9 26 -55 2 -29
7 -53 13 -53 5 0 9 -4 9 -10 0 -5 -13 -10 -29 -10 -28 0 -30 2 -33 48 -2 34
-7 47 -18 47 -10 0 -16 -12 -18 -37 -2 -22 1 -38 7 -38 6 0 11 -4 11 -10 0 -5
-18 -10 -40 -10 -38 0 -52 12 -30 25 15 9 13 142 -2 149 -9 3 -7 9 6 20 35 28
46 20 46 -35z m-80 -6 l-1 -38 -22 28 c-38 45 -47 35 -47 -48 0 -61 3 -75 16
-75 8 0 12 -4 9 -10 -8 -13 -85 -13 -85 -1 0 6 5 13 10 16 16 10 13 145 -3
145 -8 0 -20 -11 -27 -25 -16 -30 -30 -23 -30 16 l0 29 90 0 90 0 0 -37z m312
-40 c10 -9 18 -24 18 -35 0 -14 -8 -18 -41 -18 -28 0 -39 -4 -36 -12 2 -8 19
-12 42 -11 37 3 38 2 20 -17 -10 -12 -31 -20 -48 -20 -65 0 -91 70 -41 109 32
25 61 27 86 4z m98 8 c0 -5 13 -4 29 2 42 15 61 -3 61 -59 0 -24 5 -44 11 -44
5 0 7 -4 4 -10 -3 -5 -17 -10 -30 -10 -21 0 -24 5 -27 48 -2 34 -7 47 -18 47
-10 0 -16 -12 -18 -37 -2 -23 1 -38 8 -38 6 0 8 -4 5 -10 -3 -5 -25 -10 -48
-10 -32 0 -38 3 -29 12 15 15 16 75 0 84 -7 5 -5 11 7 21 22 15 45 17 45 4z
m160 -260 c0 -49 3 -96 6 -105 5 -12 -5 -15 -55 -15 -69 1 -91 15 -91 59 0 31
39 70 71 70 21 0 26 29 7 48 -9 9 -6 14 13 21 47 19 49 16 49 -78z m-372 -3
c7 -7 12 -29 12 -49 0 -21 5 -41 10 -44 25 -15 5 -23 -55 -23 -52 0 -65 4 -70
18 -10 32 5 50 42 50 23 0 33 4 30 13 -2 6 -18 11 -36 11 -17 -1 -31 1 -31 5
0 16 26 31 55 31 17 0 36 -5 43 -12z m105 0 c3 -10 7 -10 20 0 9 8 26 12 39
10 20 -3 23 -9 26 -55 2 -29 7 -53 13 -53 5 0 9 -4 9 -10 0 -5 -13 -10 -29
-10 -28 0 -30 2 -33 48 -2 34 -7 47 -18 47 -10 0 -16 -12 -18 -37 -2 -22 1
-38 7 -38 6 0 11 -4 11 -10 0 -5 -18 -10 -40 -10 -38 0 -52 12 -30 25 6 3 10
19 10 36 0 16 -4 29 -10 29 -17 0 -11 28 8 33 29 8 30 7 35 -5z m89 -250 l57
-63 1 47 c0 38 -4 48 -20 53 -30 10 -14 25 26 25 33 0 45 -12 24 -25 -5 -3
-10 -42 -10 -86 0 -52 -4 -79 -11 -79 -6 0 -38 28 -70 63 l-58 62 -1 -48 c0
-41 3 -50 20 -54 30 -8 13 -23 -26 -23 -33 0 -45 12 -24 25 6 3 10 35 10 70 0
35 -4 67 -10 70 -18 11 -11 25 13 25 14 0 41 -21 79 -62z m242 -20 c22 -32 20
-55 -9 -83 -44 -45 -115 -23 -115 36 0 58 92 93 124 47z m95 -18 c12 -40 25
-51 34 -27 2 6 -2 20 -11 30 -18 20 -16 23 21 32 20 5 27 4 27 -8 0 -8 6 -29
14 -47 13 -33 14 -33 26 -11 9 19 9 26 -4 40 -23 25 -20 31 14 31 37 0 38 -14
5 -80 -28 -55 -49 -63 -67 -24 l-12 25 -13 -25 c-19 -36 -40 -32 -58 11 -9 21
-23 45 -31 54 -14 16 -14 18 3 28 30 18 39 13 52 -29z"/>
<path d="M1185 1550 c-4 -6 5 -10 20 -10 15 0 24 4 20 10 -3 6 -12 10 -20 10
-8 0 -17 -4 -20 -10z"/>
<path d="M1413 1284 c-8 -20 8 -48 31 -52 12 -3 16 4 16 32 0 30 -4 36 -20 36
-11 0 -23 -7 -27 -16z"/>
<path d="M1070 1240 c0 -5 6 -10 14 -10 8 0 18 5 21 10 3 6 -3 10 -14 10 -12
0 -21 -4 -21 -10z"/>
<path d="M1495 1030 c-13 -21 4 -60 26 -60 17 0 20 5 17 32 -3 33 -29 50 -43
28z"/>
</g>
</svg>
